<svg width="575" height="575" viewBox="0 0 575 575" fill="none" xmlns="http://www.w3.org/2000/svg">
<path d="M565.789 357.673C566.057 357.741 566.329 357.578 566.396 357.31C581.096 298.583 576.883 236.71 554.351 180.511C531.82 124.312 492.122 76.6659 440.924 44.3595C440.691 44.2122 440.382 44.2824 440.235 44.5162L439.237 46.1036C439.09 46.3374 439.161 46.6462 439.394 46.7936C490.078 78.7769 529.377 125.946 551.683 181.581C573.989 237.216 578.159 298.469 563.608 356.607C563.541 356.875 563.703 357.147 563.971 357.215L565.789 357.673Z" fill="url(#paint0_linear_530_16)"/>
<path d="M103.02 507.355C102.842 507.566 102.87 507.882 103.082 508.059C149.525 546.892 207.045 570.076 267.445 574.3C327.845 578.523 388.032 563.57 439.427 531.579C439.662 531.433 439.733 531.124 439.587 530.89L438.593 529.3C438.447 529.066 438.138 528.995 437.904 529.14C387.023 560.81 327.44 575.613 267.646 571.432C207.851 567.25 150.908 544.299 104.93 505.857C104.718 505.68 104.403 505.707 104.225 505.918L103.02 507.355Z" fill="url(#paint1_linear_530_16)"/>
<path d="M0.893325 302.52C0.617561 302.535 0.38223 302.323 0.368258 302.047C-2.69494 241.586 13.4059 181.695 46.3823 130.916C79.3588 80.1369 127.523 41.0685 184.003 19.2752C184.26 19.1758 184.55 19.3045 184.649 19.5623L185.321 21.3127C185.42 21.5705 185.291 21.8598 185.033 21.9592C129.12 43.535 81.4393 82.2119 48.7935 132.482C16.1477 182.752 0.207893 242.041 3.23932 301.896C3.25329 302.172 3.04152 302.408 2.76576 302.422L0.893325 302.52Z" fill="url(#paint2_linear_530_16)"/>
<defs>
<linearGradient id="paint0_linear_530_16" x1="-140.327" y1="-46.8023" x2="274.841" y2="852.986" gradientUnits="userSpaceOnUse">
<stop stop-color="#A46933"/>
<stop offset="1" stop-color="#D9883E"/>
</linearGradient>
<linearGradient id="paint1_linear_530_16" x1="-140.327" y1="-46.8023" x2="274.841" y2="852.986" gradientUnits="userSpaceOnUse">
<stop stop-color="#A46933"/>
<stop offset="1" stop-color="#D9883E"/>
</linearGradient>
<linearGradient id="paint2_linear_530_16" x1="-140.327" y1="-46.8023" x2="274.841" y2="852.986" gradientUnits="userSpaceOnUse">
<stop stop-color="#A46933"/>
<stop offset="1" stop-color="#D9883E"/>
</linearGradient>
</defs>
</svg>
