<svg width="54" height="64" viewBox="0 0 54 64" fill="none" xmlns="http://www.w3.org/2000/svg">
<path d="M27 2L1 17V47L27 62L53 47V17L27 2Z" stroke="url(#paint0_radial_455_22)" stroke-width="2"/>
<path d="M40.8401 19.1765L12.4942 30.1071C10.5597 30.8841 10.5709 31.9633 12.1393 32.4445L19.4168 34.7147L36.2548 24.091C37.051 23.6066 37.7784 23.8672 37.1805 24.398L23.5384 36.71H23.5352L23.5384 36.7116L23.0364 44.2129C23.7718 44.2129 24.0963 43.8756 24.5088 43.4775L28.0436 40.0402L35.3963 45.4711C36.752 46.2177 37.7257 45.834 38.063 44.2161L42.8896 21.4691C43.3837 19.4882 42.1334 18.5913 40.8401 19.1765Z" fill="url(#paint1_radial_455_22)"/>
<defs>
<radialGradient id="paint0_radial_455_22" cx="0" cy="0" r="1" gradientUnits="userSpaceOnUse" gradientTransform="translate(27 32) rotate(90) scale(30 26)">
<stop stop-color="#CED1EA"/>
<stop offset="1" stop-color="#8F92AB"/>
</radialGradient>
<radialGradient id="paint1_radial_455_22" cx="0" cy="0" r="1" gradientUnits="userSpaceOnUse" gradientTransform="translate(27 32.4187) rotate(90) scale(13.4187 16)">
<stop stop-color="#CED1EA"/>
<stop offset="1" stop-color="#8F92AB"/>
</radialGradient>
</defs>
</svg>
