<svg width="54" height="64" viewBox="0 0 54 64" fill="none" xmlns="http://www.w3.org/2000/svg">
<path d="M27 2L1 17V47L27 62L53 47V17L27 2Z" stroke="url(#paint0_radial_455_18)" stroke-width="2"/>
<path d="M27.103 19H27.281C28.9251 19.0069 37.2556 19.0763 39.5018 19.775C40.1808 19.9882 40.7996 20.4038 41.2962 20.9803C41.7929 21.5567 42.15 22.2738 42.332 23.06C42.534 23.9391 42.676 25.1027 42.772 26.3033L42.792 26.5439L42.836 27.1454L42.852 27.386C42.982 29.5004 42.998 31.4806 43 31.9132V32.0868C42.998 32.5355 42.98 34.65 42.836 36.8523L42.82 37.0952L42.802 37.3358C42.702 38.659 42.554 39.973 42.332 40.94C42.1506 41.7265 41.7936 42.4439 41.2969 43.0205C40.8001 43.597 40.1811 44.0124 39.5018 44.225C37.1816 44.9468 28.3631 44.9977 27.141 45H26.857C26.239 45 23.6828 44.9861 21.0026 44.8797L20.6626 44.8658L20.4886 44.8566L20.1466 44.8404L19.8046 44.8242C17.5844 44.7108 15.4703 44.5281 14.4962 44.2227C13.8172 44.0103 13.1983 43.5953 12.7016 43.0192C12.2048 42.443 11.8477 41.726 11.666 40.94C11.444 39.9754 11.296 38.659 11.196 37.3358L11.18 37.0929L11.164 36.8523C11.0653 35.2848 11.0106 33.7139 11 32.1423L11 31.8577C11.004 31.3604 11.02 29.6415 11.128 27.7445L11.142 27.5063L11.148 27.386L11.164 27.1454L11.208 26.5439L11.228 26.3033C11.324 25.1027 11.466 23.9367 11.668 23.06C11.8494 22.2735 12.2064 21.5561 12.7031 20.9795C13.1999 20.403 13.8189 19.9876 14.4982 19.775C15.4723 19.4742 17.5864 19.2892 19.8066 19.1735L20.1466 19.1573L20.4906 19.1434L20.6626 19.1365L21.0046 19.1203C22.9082 19.0494 24.8125 19.0101 26.717 19.0023H27.103V19ZM23.8008 26.4259V37.5718L32.1153 32.0012L23.8008 26.4259Z" fill="url(#paint1_radial_455_18)"/>
<defs>
<radialGradient id="paint0_radial_455_18" cx="0" cy="0" r="1" gradientUnits="userSpaceOnUse" gradientTransform="translate(27 32) rotate(90) scale(30 26)">
<stop stop-color="#CED1EA"/>
<stop offset="1" stop-color="#8F92AB"/>
</radialGradient>
<radialGradient id="paint1_radial_455_18" cx="0" cy="0" r="1" gradientUnits="userSpaceOnUse" gradientTransform="translate(27 32) rotate(90) scale(13 16)">
<stop stop-color="#CED1EA"/>
<stop offset="1" stop-color="#8F92AB"/>
</radialGradient>
</defs>
</svg>
