<svg width="54" height="64" viewBox="0 0 54 64" fill="none" xmlns="http://www.w3.org/2000/svg">
<path d="M27 2L1 17V47L27 62L53 47V17L27 2Z" stroke="url(#paint0_radial_455_10)" stroke-width="2"/>
<path d="M38.0892 21.1563C36.0492 20.1597 33.8626 19.4231 31.576 19.0043C31.5557 19 31.5346 19.0028 31.5157 19.0121C31.4969 19.0214 31.4811 19.0368 31.4707 19.0563C31.1907 19.5892 30.8787 20.284 30.6601 20.8328C28.2349 20.4403 25.7694 20.4403 23.3443 20.8328C23.1007 20.2245 22.8261 19.6314 22.5216 19.0563C22.5113 19.0366 22.4957 19.0208 22.4769 19.011C22.4581 19.0012 22.4369 18.9978 22.4163 19.0014C20.131 19.4202 17.9444 20.1569 15.9032 21.1549C15.8856 21.1629 15.8707 21.1765 15.8605 21.1939C11.7113 27.8018 10.574 34.2465 11.1326 40.6103C11.1342 40.6259 11.1387 40.641 11.1458 40.6546C11.1529 40.6683 11.1625 40.6802 11.174 40.6897C13.5958 42.5998 16.2969 44.0548 19.1644 44.9939C19.1844 45.0006 19.2058 45.0005 19.2258 44.9938C19.2457 44.9871 19.2634 44.9741 19.2764 44.9563C19.8924 44.0608 20.4417 43.1148 20.911 42.1211C20.939 42.0633 20.9124 41.994 20.8564 41.9709C19.9951 41.6195 19.1605 41.1955 18.3604 40.7027C18.3461 40.6938 18.3339 40.6812 18.3252 40.666C18.3164 40.6508 18.3113 40.6335 18.3102 40.6156C18.3091 40.5977 18.3122 40.5798 18.3191 40.5635C18.326 40.5472 18.3365 40.533 18.3498 40.5222C18.5178 40.3879 18.6858 40.2478 18.8457 40.1077C18.8601 40.0951 18.8775 40.087 18.8959 40.0845C18.9142 40.0819 18.9329 40.085 18.9497 40.0932C24.1856 42.641 29.8561 42.641 35.0306 40.0932C35.0475 40.0845 35.0664 40.081 35.085 40.0833C35.1036 40.0856 35.1213 40.0936 35.1359 40.1062C35.2959 40.2478 35.4626 40.3879 35.6319 40.5222C35.6453 40.5328 35.656 40.5468 35.6631 40.5629C35.6702 40.5791 35.6735 40.5969 35.6727 40.6148C35.6719 40.6327 35.6671 40.6501 35.6586 40.6654C35.65 40.6808 35.6381 40.6936 35.6239 40.7027C34.8266 41.1996 33.9973 41.6199 33.1267 41.9694C33.1133 41.9747 33.1011 41.983 33.0909 41.9937C33.0808 42.0045 33.0728 42.0175 33.0676 42.0318C33.0625 42.0462 33.0602 42.0616 33.0609 42.077C33.0617 42.0924 33.0655 42.1074 33.072 42.1211C33.552 43.1133 34.1013 44.0579 34.7053 44.9549C34.7178 44.9733 34.7353 44.9871 34.7554 44.9943C34.7754 45.0015 34.797 45.0019 34.8173 44.9953C37.6897 44.0589 40.3953 42.6032 42.8197 40.6897C42.8315 40.6808 42.8415 40.6692 42.8488 40.6557C42.8562 40.6423 42.8608 40.6273 42.8624 40.6117C43.529 33.2542 41.7451 26.8615 38.1305 21.1968C38.1217 21.1784 38.107 21.164 38.0892 21.1563ZM21.6937 36.7351C20.1177 36.7351 18.8177 35.1911 18.8177 33.2975C18.8177 31.4026 20.0924 29.86 21.6937 29.86C23.307 29.86 24.5949 31.4156 24.5696 33.2975C24.5696 35.1925 23.295 36.7351 21.6937 36.7351ZM32.3267 36.7351C30.7494 36.7351 29.4508 35.1911 29.4508 33.2975C29.4508 31.4026 30.7241 29.86 32.3267 29.86C33.94 29.86 35.2279 31.4156 35.2026 33.2975C35.2026 35.1925 33.9413 36.7351 32.3267 36.7351Z" fill="url(#paint1_radial_455_10)"/>
<defs>
<radialGradient id="paint0_radial_455_10" cx="0" cy="0" r="1" gradientUnits="userSpaceOnUse" gradientTransform="translate(27 32) rotate(90) scale(30 26)">
<stop stop-color="#CED1EA"/>
<stop offset="1" stop-color="#8F92AB"/>
</radialGradient>
<radialGradient id="paint1_radial_455_10" cx="0" cy="0" r="1" gradientUnits="userSpaceOnUse" gradientTransform="translate(27 32) rotate(90) scale(13 16)">
<stop stop-color="#CED1EA"/>
<stop offset="1" stop-color="#8F92AB"/>
</radialGradient>
</defs>
</svg>
