<svg width="32" height="32" viewBox="0 0 32 32" fill="none" xmlns="http://www.w3.org/2000/svg">
<path d="M0 16C0 11.7565 1.68571 7.68687 4.68629 4.68629C7.68687 1.68571 11.7565 0 16 0C20.2435 0 24.3131 1.68571 27.3137 4.68629C30.3143 7.68687 32 11.7565 32 16C32 20.2435 30.3143 24.3131 27.3137 27.3137C24.3131 30.3143 20.2435 32 16 32C11.7565 32 7.68687 30.3143 4.68629 27.3137C1.68571 24.3131 0 20.2435 0 16ZM15 2.154C13.66 2.562 12.33 3.794 11.226 5.864C10.94 6.4 10.674 6.984 10.436 7.608C11.846 7.922 13.38 8.122 15 8.182V2.154ZM8.498 7.078C8.782 6.31 9.106 5.59 9.46 4.922C9.80581 4.26811 10.2052 3.64398 10.654 3.056C8.95133 3.7616 7.4045 4.79599 6.102 6.1C6.826 6.468 7.628 6.798 8.498 7.08V7.078ZM7.018 15C7.09 12.86 7.394 10.826 7.89 8.984C6.8074 8.63778 5.75951 8.19118 4.76 7.65C3.16709 9.7887 2.22164 12.3397 2.036 15H7.016H7.018ZM9.818 9.518C9.3465 11.3095 9.07814 13.1484 9.018 15H15V10.182C13.18 10.122 11.434 9.892 9.818 9.518ZM17 10.18V15H22.98C22.9205 13.1485 22.6529 11.3096 22.182 9.518C20.566 9.892 18.82 10.12 17 10.182V10.18ZM9.02 17C9.09 18.974 9.372 20.828 9.818 22.482C11.5201 22.0957 13.2554 21.874 15 21.82V17H9.02ZM17 17V21.818C18.82 21.878 20.566 22.108 22.182 22.482C22.628 20.828 22.91 18.974 22.982 17H17ZM10.436 24.392C10.676 25.016 10.94 25.6 11.226 26.136C12.33 28.206 13.662 29.436 15 29.846V23.82C13.38 23.88 11.846 24.08 10.436 24.394V24.392ZM10.656 28.944C10.2065 28.3561 9.80642 27.732 9.46 27.078C9.09164 26.3809 8.77026 25.66 8.498 24.92C7.67526 25.1844 6.87421 25.5121 6.102 25.9C7.4045 27.204 8.95133 28.2384 10.654 28.944H10.656ZM7.89 23.016C7.37075 21.0504 7.07752 19.0321 7.016 17H2.036C2.22153 19.6603 3.16699 22.2113 4.76 24.35C5.7 23.834 6.75 23.386 7.89 23.016ZM21.346 28.944C23.0478 28.2388 24.5939 27.2051 25.896 25.902C25.1245 25.5141 24.3241 25.1865 23.502 24.922C23.2297 25.6613 22.9083 26.3815 22.54 27.078C22.1943 27.7319 21.7949 28.3561 21.346 28.944ZM17 23.818V29.846C18.34 29.438 19.67 28.206 20.774 26.136C21.06 25.6 21.326 25.016 21.564 24.392C20.0632 24.0629 18.5356 23.8715 17 23.82V23.818ZM24.11 23.016C25.25 23.386 26.3 23.834 27.24 24.35C28.833 22.2113 29.7785 19.6603 29.964 17H24.984C24.9225 19.0321 24.6292 21.0504 24.11 23.016ZM29.964 15C29.7785 12.3397 28.833 9.78865 27.24 7.65C26.3 8.166 25.25 8.614 24.11 8.984C24.606 10.824 24.91 12.86 24.984 15H29.964ZM22.54 4.922C22.894 5.59 23.218 6.31 23.504 7.078C24.3254 6.81349 25.1251 6.48585 25.896 6.098C24.5937 4.79565 23.0476 3.76264 21.346 3.058C21.782 3.624 22.182 4.252 22.54 4.922ZM21.564 7.608C21.3368 7.01097 21.073 6.42853 20.774 5.864C19.67 3.794 18.34 2.564 17 2.154V8.18C18.62 8.12 20.154 7.92 21.564 7.606V7.608Z" fill="#CFB369"/>
</svg>
